<?xml version="1.0"?>
<svg xmlns="http://www.w3.org/2000/svg" viewBox="0 0 32 32">
    <path style="text-indent:0;text-align:start;line-height:normal;text-transform:none;block-progression:tb;-inkscape-font-specification:Bitstream Vera Sans" d="M 16 4 C 9.3844277 4 4 9.3844277 4 16 C 4 22.615572 9.3844277 28 16 28 C 22.615572 28 28 22.615572 28 16 C 28 9.3844277 22.615572 4 16 4 z M 16 6 C 21.534692 6 26 10.465308 26 16 C 26 21.534692 21.534692 26 16 26 C 10.465308 26 6 21.534692 6 16 C 6 10.465308 10.465308 6 16 6 z M 15.25 11 L 15 11.65625 L 12.0625 19.65625 L 12 19.8125 L 12 20 L 12 21 L 14 21 L 14 20.1875 L 14.4375 19 L 17.5625 19 L 18 20.1875 L 18 21 L 20 21 L 20 20 L 20 19.8125 L 19.9375 19.65625 L 17 11.65625 L 16.75 11 L 16.0625 11 L 15.9375 11 L 15.25 11 z M 16 14.71875 L 16.84375 17 L 15.15625 17 L 16 14.71875 z" overflow="visible" font-family="Bitstream Vera Sans"/>
</svg>
