<?xml version="1.0"?>
<svg xmlns="http://www.w3.org/2000/svg" viewBox="0 0 32 32">
    <path style="text-indent:0;text-align:start;line-height:normal;text-transform:none;block-progression:tb;-inkscape-font-specification:Bitstream Vera Sans" d="M 16 4 C 9.3844277 4 4 9.3844277 4 16 C 4 22.615572 9.3844277 28 16 28 C 22.615572 28 28 22.615572 28 16 C 28 9.3844277 22.615572 4 16 4 z M 16 6 C 21.534692 6 26 10.465308 26 16 C 26 21.534692 21.534692 26 16 26 C 10.465308 26 6 21.534692 6 16 C 6 10.465308 10.465308 6 16 6 z M 13 11 L 13 12 L 13 20 L 13 21 L 14 21 L 18 21 C 19.64497 21 21 19.64497 21 18 C 21 16.876383 20.26875 16.076117 19.34375 15.5625 C 19.658792 15.088201 20 14.606522 20 14 C 20 12.35503 18.64497 11 17 11 L 14 11 L 13 11 z M 15 13 L 17 13 C 17.56503 13 18 13.43497 18 14 C 18 14.56503 17.56503 15 17 15 L 15 15 L 15 13 z M 15 17 L 17 17 L 18 17 C 18.56503 17 19 17.43497 19 18 C 19 18.56503 18.56503 19 18 19 L 15 19 L 15 17 z" overflow="visible" font-family="Bitstream Vera Sans"/>
</svg>
