<?xml version="1.0"?>
<svg xmlns="http://www.w3.org/2000/svg" viewBox="0 0 32 32">
    <path style="text-indent:0;text-align:start;line-height:normal;text-transform:none;block-progression:tb;-inkscape-font-specification:Bitstream Vera Sans" d="M 12 5 L 12 6 L 12 12 L 6 12 L 5 12 L 5 13 L 5 19 L 5 20 L 6 20 L 12 20 L 12 26 L 12 27 L 13 27 L 19 27 L 20 27 L 20 26 L 20 20 L 26 20 L 27 20 L 27 19 L 27 13 L 27 12 L 26 12 L 20 12 L 20 6 L 20 5 L 19 5 L 13 5 L 12 5 z M 14 7 L 18 7 L 18 13 L 18 14 L 19 14 L 25 14 L 25 18 L 19 18 L 18 18 L 18 19 L 18 25 L 14 25 L 14 19 L 14 18 L 13 18 L 7 18 L 7 14 L 13 14 L 14 14 L 14 13 L 14 7 z" overflow="visible" font-family="Bitstream Vera Sans"/>
</svg>
