<?xml version="1.0"?>
<svg xmlns="http://www.w3.org/2000/svg" viewBox="0 0 32 32">
    <path style="text-indent:0;text-align:start;line-height:normal;text-transform:none;block-progression:tb;-inkscape-font-specification:Bitstream Vera Sans" d="M 21.375 7 C 11.439563 7 6.7416059 10.498332 5.125 12.125 C 4.53694 12.715874 4.1667517 13.510428 4.09375 14.34375 L 3.5 21.15625 C 3.410428 22.187022 3.7841929 23.193786 4.5 23.9375 C 5.1502721 24.612729 6.0310883 25 6.96875 25 L 22.46875 25 C 23.958421 25 25.273093 24.040472 25.75 22.625 C 27.099911 18.63239 27.778824 16.429955 28.125 15.1875 C 28.298088 14.566272 28.386549 14.183982 28.4375 13.90625 C 28.48845 13.628518 28.5 13.411 28.5 13.34375 C 28.5 12.461687 28.046604 11.867887 27.53125 11.21875 C 27.015896 10.569613 26.366211 9.9143558 25.65625 9.3125 C 24.946289 8.7106442 24.177334 8.1654112 23.46875 7.75 C 22.760166 7.3345888 22.167652 7 21.375 7 z M 21.375 9 C 21.32885 9 21.891365 9.1302549 22.46875 9.46875 C 23.046135 9.8072451 23.712336 10.308481 24.34375 10.84375 C 24.975164 11.379019 25.571385 11.968231 25.96875 12.46875 C 26.366115 12.969269 26.5 13.434313 26.5 13.34375 C 26.5 13.411 26.502 13.38133 26.46875 13.5625 C 26.43551 13.743674 26.351162 14.068853 26.1875 14.65625 C 25.860176 15.831045 25.187839 17.99336 23.84375 21.96875 C 23.632657 22.595278 23.093079 23 22.46875 23 L 6.96875 23 C 6.5664117 23 6.2252279 22.861271 5.9375 22.5625 C 5.6273071 22.240214 5.4595724 21.777728 5.5 21.3125 L 6.09375 14.5 C 6.1267483 14.123322 6.28331 13.780376 6.53125 13.53125 C 7.8066441 12.247918 11.904437 9 21.375 9 z M 10 13 L 10 20 L 10 21 L 11 21 L 15 21 L 15 19 L 12 19 L 12 13 L 10 13 z M 16 13 L 16 14 L 16 20 L 16 21 L 17 21 L 19.5 21 C 20.869063 21 22 19.869063 22 18.5 C 22 17.558769 21.372719 16.894757 20.59375 16.46875 C 20.747136 16.146063 21 15.877672 21 15.5 C 21 14.130937 19.869063 13 18.5 13 L 17 13 L 16 13 z M 18 15 L 18.5 15 C 18.786937 15 19 15.213063 19 15.5 C 19 15.786937 18.786937 16 18.5 16 L 18 16 L 18 15 z M 18 18 L 18.5 18 L 19.5 18 C 19.786937 18 20 18.213063 20 18.5 C 20 18.786937 19.786937 19 19.5 19 L 18 19 L 18 18 z" overflow="visible" font-family="Bitstream Vera Sans"/>
</svg>
