<?xml version="1.0"?>
<svg xmlns="http://www.w3.org/2000/svg" viewBox="0 0 32 32">
    <path style="text-indent:0;text-align:start;line-height:normal;text-transform:none;block-progression:tb;-inkscape-font-specification:Bitstream Vera Sans" d="M 8.28125 6 C 7.4048864 6 6.631127 6.5703627 6.375 7.40625 C 6.3097691 7.6200623 5 11.711383 5 14.46875 C 5 16.072291 5.6766847 18.703757 7.15625 21.1875 C 8.6358153 23.671243 11.056063 26 14.46875 26 L 26 26 C 26.692821 26 27.324199 25.651367 27.6875 25.0625 C 28.04904 24.47969 28.075226 23.736337 27.78125 23.125 C 27.77975 23.1219 27.78295 23.09711 27.78125 23.09375 C 27.72811 22.985597 27.634673 22.75908 27.40625 22.25 C 27.17072 21.725082 26.841623 21.017183 26.53125 20.1875 C 25.910504 18.528134 25.3125 16.418471 25.3125 14.96875 C 25.3125 13.280052 25.50873 11.649973 25.6875 10.4375 C 25.77689 9.8312633 25.870295 9.3477819 25.9375 9 C 25.9711 8.8261091 25.98046 8.6857394 26 8.59375 C 26.0098 8.547755 26.02613 8.4918449 26.03125 8.46875 L 26.03125 8.4375 C 26.166575 7.8464488 26.035611 7.2271966 25.65625 6.75 C 25.277292 6.2753047 24.702575 6 24.09375 6 L 8.28125 6 z M 8.28125 8 L 24.09375 8 C 24.08955 8.017725 24.06703 8.042078 24.0625 8.0625 C 24.056 8.091674 24.07349 8.135764 24.0625 8.1875 C 24.04053 8.2909716 24.0048 8.4384222 23.96875 8.625 C 23.89664 8.9981556 23.781865 9.5162367 23.6875 10.15625 C 23.49877 11.436277 23.3125 13.141448 23.3125 14.96875 C 23.3125 16.918029 23.997246 19.113366 24.65625 20.875 C 24.985752 21.755817 25.313436 22.538668 25.5625 23.09375 C 25.811564 23.648832 26.038593 24.078731 26 24 L 14.46875 24 C 11.954437 24 10.152185 22.331507 8.875 20.1875 C 7.5978153 18.043493 7 15.402209 7 14.46875 C 7 12.412117 8.2384809 8.1401877 8.28125 8 z M 11 12 L 11 19 L 11 20 L 12 20 L 16 20 L 16 18 L 13 18 L 13 12 L 11 12 z M 15 12 L 15 14 L 17 14 L 17 20 L 19 20 L 19 14 L 21 14 L 21 12 L 15 12 z" overflow="visible" font-family="Bitstream Vera Sans"/>
</svg>
