<?xml version="1.0"?>
<svg xmlns="http://www.w3.org/2000/svg" viewBox="0 0 32 32">
    <path style="text-indent:0;text-align:start;line-height:normal;text-transform:none;block-progression:tb;-inkscape-font-specification:Bitstream Vera Sans" d="M 10.625 7 C 9.8323791 7 9.2399958 7.3345847 8.53125 7.75 C 7.8225042 8.1654153 7.0537845 8.710638 6.34375 9.3125 C 5.6337155 9.914362 4.9841255 10.569608 4.46875 11.21875 C 3.9533745 11.867892 3.5 12.461687 3.5 13.34375 C 3.5 13.41125 3.511543 13.628427 3.5625 13.90625 C 3.613457 14.184073 3.7019107 14.566332 3.875 15.1875 C 4.2211786 16.429836 4.9000932 18.632402 6.25 22.625 C 6.7270944 24.041027 8.0415789 25 9.53125 25 L 25.03125 25 C 25.968912 25 26.850284 24.613593 27.5 23.9375 C 28.210041 23.201212 28.581232 22.177216 28.5 21.15625 L 28.5 21.125 L 27.90625 14.34375 C 27.833191 13.511148 27.462105 12.716319 26.875 12.125 C 25.257992 10.499052 20.560437 7 10.625 7 z M 10.625 9 C 20.095563 9 24.191758 12.247198 25.46875 13.53125 C 25.717645 13.781931 25.873309 14.124602 25.90625 14.5 L 26.5 21.3125 C 26.54098 21.776961 26.373248 22.240265 26.0625 22.5625 C 25.776216 22.860407 25.433588 23 25.03125 23 L 9.53125 23 C 8.9069211 23 8.3671556 22.594723 8.15625 21.96875 C 6.8121568 17.993348 6.1398214 15.830914 5.8125 14.65625 C 5.6488393 14.068918 5.5644805 13.743677 5.53125 13.5625 C 5.4980195 13.381323 5.5 13.41125 5.5 13.34375 C 5.5 13.43431 5.6338755 12.969264 6.03125 12.46875 C 6.4286245 11.968236 7.0247845 11.379013 7.65625 10.84375 C 8.2877155 10.308487 8.9537458 9.807241 9.53125 9.46875 C 10.108754 9.130259 10.670621 9 10.625 9 z M 10 13 L 10 14 L 10 21 L 12 21 L 12 18 L 12.25 18 L 14 21 L 16 21 L 14.1875 17.875 C 15.224076 17.569972 16 16.628341 16 15.5 C 16 14.130937 14.869063 13 13.5 13 L 11 13 L 10 13 z M 17 13 L 17 14 L 17 20 L 17 21 L 18 21 L 20.5 21 C 21.869063 21 23 19.869063 23 18.5 C 23 17.558769 22.372719 16.894757 21.59375 16.46875 C 21.747136 16.146063 22 15.877672 22 15.5 C 22 14.130937 20.869063 13 19.5 13 L 18 13 L 17 13 z M 12 15 L 13.5 15 C 13.786937 15 14 15.213063 14 15.5 C 14 15.786937 13.786937 16 13.5 16 L 12 16 L 12 15 z M 19 15 L 19.5 15 C 19.786937 15 20 15.213063 20 15.5 C 20 15.786937 19.786937 16 19.5 16 L 19 16 L 19 15 z M 19 18 L 19.5 18 L 20.5 18 C 20.786937 18 21 18.213063 21 18.5 C 21 18.786937 20.786937 19 20.5 19 L 19 19 L 19 18 z" overflow="visible" font-family="Bitstream Vera Sans"/>
</svg>
