<?xml version="1.0"?>
<svg xmlns="http://www.w3.org/2000/svg" viewBox="0 0 32 32">
    <path style="text-indent:0;text-align:start;line-height:normal;text-transform:none;block-progression:tb;-inkscape-font-specification:Bitstream Vera Sans" d="M 7.90625 6 C 7.2974249 6 6.7224959 6.2730607 6.34375 6.75 C 5.9654523 7.2258587 5.8305978 7.8428448 5.96875 8.4375 L 5.96875 8.46875 C 5.97387 8.491845 5.990233 8.547755 6 8.59375 C 6.019535 8.685739 6.028898 8.8261091 6.0625 9 C 6.129705 9.3477819 6.223115 9.8312633 6.3125 10.4375 C 6.4912699 11.649973 6.6875 13.280052 6.6875 14.96875 C 6.6875 16.418471 6.0894963 18.528134 5.46875 20.1875 C 5.1583768 21.017183 4.8292798 21.725082 4.59375 22.25 C 4.3653267 22.75908 4.271885 22.985597 4.21875 23.09375 C 4.2171 23.09715 4.22029 23.12186 4.21875 23.125 C 3.9247739 23.736337 3.9509605 24.47969 4.3125 25.0625 C 4.6751487 25.653557 5.3071787 26 6 26 L 17.53125 26 C 20.943937 26 23.364185 23.671243 24.84375 21.1875 C 26.323315 18.703757 27 16.072291 27 14.46875 C 27 13.090067 26.674292 11.432503 26.34375 10.03125 C 26.013208 8.629997 25.645321 7.5053652 25.625 7.4375 L 25.625 7.40625 C 25.368873 6.5703627 24.595114 6 23.71875 6 L 7.90625 6 z M 7.90625 8 L 23.71875 8 C 23.75143 8.1091348 24.059792 9.163753 24.375 10.5 C 24.690208 11.836247 25 13.440433 25 14.46875 C 25 15.402209 24.402185 18.043493 23.125 20.1875 C 21.847815 22.331507 20.045563 24 17.53125 24 L 6 24 C 5.961406 24.07873 6.1884361 23.648832 6.4375 23.09375 C 6.6865639 22.538668 7.0142482 21.755817 7.34375 20.875 C 8.0027537 19.113366 8.6875 16.918029 8.6875 14.96875 C 8.6875 13.141448 8.5012301 11.436277 8.3125 10.15625 C 8.218135 9.5162367 8.1033578 8.9981556 8.03125 8.625 C 7.9951961 8.4384222 7.9594731 8.2909716 7.9375 8.1875 C 7.926514 8.135764 7.94397 8.091674 7.9375 8.0625 C 7.9329729 8.0420784 7.9104631 8.0177253 7.90625 8 z M 11 12 L 11 13 L 11 20 L 13 20 L 13 17 L 13.25 17 L 15 20 L 17 20 L 15.1875 16.875 C 16.224076 16.569972 17 15.628341 17 14.5 C 17 13.130937 15.869063 12 14.5 12 L 12 12 L 11 12 z M 17 12 L 17 14 L 19 14 L 19 20 L 21 20 L 21 14 L 23 14 L 23 12 L 17 12 z M 13 14 L 14.5 14 C 14.786937 14 15 14.213063 15 14.5 C 15 14.786937 14.786937 15 14.5 15 L 13 15 L 13 14 z" overflow="visible" font-family="Bitstream Vera Sans"/>
</svg>
