<?xml version="1.0"?>
<svg xmlns="http://www.w3.org/2000/svg" viewBox="0 0 32 32">
    <path style="text-indent:0;text-align:start;line-height:normal;text-transform:none;block-progression:tb;-inkscape-font-specification:Bitstream Vera Sans" d="M 16 4 C 9.3844277 4 4 9.3844277 4 16 C 4 22.615572 9.3844277 28 16 28 C 22.615572 28 28 22.615572 28 16 C 28 9.3844277 22.615572 4 16 4 z M 16 6 C 21.534692 6 26 10.465308 26 16 C 26 21.534692 21.534692 26 16 26 C 10.465308 26 6 21.534692 6 16 C 6 10.465308 10.465308 6 16 6 z M 10 11 L 10 12 L 10 18 L 12 18 L 12 13 L 19 13 L 19 11 L 11 11 L 10 11 z M 13 14 L 13 15 L 13 20 L 13 21 L 14 21 L 21 21 L 22 21 L 22 20 L 22 15 L 22 14 L 21 14 L 14 14 L 13 14 z M 15 16 L 20 16 L 20 19 L 15 19 L 15 16 z" overflow="visible" font-family="Bitstream Vera Sans"/>
</svg>
